# AST/ASF file generated using VICON BodyLanguage
# -----------------------------------------------
:version 1.10
:name VICON
:units
  mass 1.0
  length 0.45
  angle deg
:documentation
   .ast/.asf automatically generated from VICON data using
   VICON BodyBuilder and BodyLanguage model FoxedUp or BRILLIANT.MOD
:root
   order TX TY TZ RX RY RZ
   axis XYZ
   position 0 0 0  
   orientation 0 0 0 
:bonedata
  begin
     id 1 
     name lhipjoint
     direction 0.660183 -0.676772 0.325788 
     length 2.75133 
     axis 0 0 0  XYZ
  end
  begin
     id 2 
     name lfemur
     direction 0.34202 -0.939693 0  
     length 7.70317  
     axis 0 0 20  XYZ
    dof rx ry rz
    limits (-160.0 20.0)
           (-70.0 70.0)
           (-60.0 70.0)
  end
  begin
     id 3 
     name ltibia
     direction 0.342105 -0.939662 0   
     length 7.18701   
     axis 0 0 20   XYZ
    dof rx
    limits (-10.0 170.0)
  end
  begin
     id 4 
     name lfoot
     direction 0.14163 -0.389126 0.910232   
     length 2.41719   
     axis -90 7.62852e-016 20   XYZ
    dof rx rz
    limits (-45.0 90.0)
           (-70.0 20.0)
  end
  begin
     id 5 
     name ltoes
     direction 1.53533e-011 -4.21926e-011 1   
     length 1.18611   
     axis -90 7.62852e-016 20   XYZ
    dof rx
    limits (-90.0 20.0)
  end
  begin
     id 6 
     name rhipjoint
     direction -0.6658 -0.67229 0.323631   
     length 2.76968  
     axis 0 0 0  XYZ 
  end
  begin
     id 7 
     name rfemur
     direction -0.34202 -0.939693 0   
     length 7.92547   
     axis 0 0 -20   XYZ
    dof rx ry rz
    limits (-160.0 20.0)
           (-70.0 70.0)
           (-70.0 60.0)
  end
  begin
     id 8 
     name rtibia
     direction -0.342022 -0.939692 0   
     length 7.22641   
     axis 0 0 -20   XYZ
    dof rx
    limits (-10.0 170.0)
 end
 begin
     id 9 
     name rfoot
     direction -0.105675 -0.29034 0.951071   
     length 2.48149  
     axis -90 -7.62852e-016 -20   XYZ
    dof rx rz
    limits (-45.0 90.0)
           (-20.0 70.0)
  end
  begin
     id 10 
     name rtoes
     direction -1.5349e-011 -4.21859e-011 1   
     length 1.23343   
     axis -90 -7.62852e-016 -20   XYZ
    dof rx
    limits (-90.0 20.0)
  end
  begin
     id 11 
     name lowerback
     direction 0.0104173 0.993624 -0.112266   
     length 2.00527   
     axis 0 0 0   XYZ
    dof rx ry rz
    limits (-20.0 45.0)
           (-30.0 30.0)
           (-30.0 30.0)
  end
  begin
     id 12 
     name upperback
     direction 0.00733149 0.999856 -0.0152913   
     length 2.01385   
     axis 0 0 0   XYZ
    dof rx ry rz
    limits (-20.0 45.0)
           (-30.0 30.0)
           (-30.0 30.0)
  end
  begin
     id 13 
     name thorax
     direction 0.0026304 0.999318 0.036841   
     length 2.03734   
     axis 0 0 0   XYZ
    dof rx ry rz
    limits (-20.0 45.0)
           (-30.0 30.0)
           (-30.0 30.0)
  end
  begin
     id 14 
     name lowerneck
     direction 0.0293154 0.998757 0.0403082   
     length 1.65303   
     axis 0 0 0   XYZ
    dof rx ry rz
    limits (-20.0 45.0)
           (-30.0 30.0)
           (-30.0 30.0)
  end
  begin
     id 15 
     name upperneck
     direction -0.0376619 0.998184 -0.0470083   
     length 1.60926   
     axis 0 0 0   XYZ
    dof rx ry rz
    limits (-20.0 45.0)
           (-30.0 30.0)
           (-30.0 30.0)
  end
  begin
     id 16
     name head
     direction -0.0170133 0.999635 -0.0209778  
     length 1.73625  
     axis 0 0 0   XYZ
    dof rx ry rz
    limits (-20.0 45.0)
           (-30.0 30.0)
           (-30.0 30.0)
  end
  begin
     id 17 
     name lclavicle
     direction 0.919857 0.39181 -0.0186333  
     length 3.75313  
     axis 0 0 0   XYZ
    dof ry rz
    limits (-20.0 10.0)
           (0.0 20.0)
  end
  begin
     id 18 
     name lhumerus
     direction 1 -4.48988e-011 1.44029e-027   
     length 5.49313   
     axis 180 -30 -90   XYZ
    dof rx ry rz
    limits (-60.0 90.0)
           (-90.0 90.0)
           (-90.0 90.0)
  end
  begin
     id 19
     name lradius
     direction 1 -4.48924e-011 7.46281e-027   
     length 3.29037   
     axis 180 -30 -90   XYZ
    dof rx
    limits (-10.0 170.0)
  end
  begin
     id 20
     name lwrist
     direction 1 -4.48955e-011 2.19879e-026   
     length 1.64519   
     axis -1.34358e-014 90 90   XYZ
    dof ry
    limits (-180.0 0.0)
 end
  begin
     id 21 
     name lhand
     direction 1 -4.48978e-011 4.39747e-026   
     length 0.729656   
     axis -2.80598e-014 90 90   XYZ
    dof rx rz
    limits (-90.0 90.0)
           (-45.0 45.0)
  end
  begin
     id 22 
     name lfingers
     direction 1 -4.49071e-011 8.79411e-026   
     length 0.588268   
     axis -5.61193e-014 90 90   XYZ
    dof rx
    limits (0.0 90.0)
  end
  begin
     id 23
     name lthumb
     direction 0.707107 -6.34817e-011 0.707107   
     length 0.844638   
     axis -90 45 -9.86923e-015   XYZ
    dof rx rz
    limits (-45.0 45.0)
           (-45.0 45.0)
  end
  begin
     id 24 
     name rclavicle
     direction -0.919898 0.388279 0.0550233   
     length 3.7171  
     axis 0 0 0   XYZ 
    dof ry rz
    limits (-10.0 20.0)
           (-20.0 0.0)
  end
  begin
     id 25 
     name rhumerus
     direction -1 -4.48968e-011 9.98372e-028  
     length 5.23684   
     axis 180 30 90   XYZ
    dof rx ry rz
    limits (-90.0 60.0)
           (-90.0 90.0)
           (-90.0 90.0)
  end
  begin
     id 26 
     name rradius
     direction -1 -4.48956e-011 1.01023e-026   
     length 3.38251   
     axis 180 30 90   XYZ
    dof rx
    limits (-10.0 170.0)
  end
  begin
     id 27 
     name rwrist
     direction -1 -4.4892e-011 2.19886e-026   
     length 1.69126   
     axis -1.34358e-014 -90 -90   XYZ
    dof ry
    limits (-180.0 0.0)
  end
  begin
     id 28
     name rhand
     direction -1 -4.49024e-011 4.39727e-026   
     length 0.691454   
     axis -2.80598e-014 -90 -90   XYZ
    dof rx rz
    limits (-90.0 90.0)
           (-45.0 45.0)
  end
  begin
     id 29
     name rfingers
     direction -1 -4.49097e-011 8.79388e-026   
     length 0.557468   
     axis -5.61193e-014 -90 -90   XYZ
    dof rx
    limits (0.0 90.0)
  end
  begin
     id 30
     name rthumb
     direction -0.707107 -6.34938e-011 0.707107   
     length 0.800416   
     axis -90 -45 9.86923e-015   XYZ
    dof rx rz
    limits (-45.0 45.0)
           (-45.0 45.0)
  end
:hierarchy
  begin
    root lhipjoint rhipjoint lowerback
    lhipjoint lfemur
    lfemur ltibia
    ltibia lfoot
    lfoot ltoes
    rhipjoint rfemur
    rfemur rtibia
    rtibia rfoot
    rfoot rtoes
    lowerback upperback
    upperback thorax
    thorax lowerneck lclavicle rclavicle
    lowerneck upperneck
    upperneck head
    lclavicle lhumerus
    lhumerus lradius
    lradius lwrist
    lwrist lhand lthumb
    lhand lfingers
    rclavicle rhumerus
    rhumerus rradius
    rradius rwrist
    rwrist rhand rthumb
    rhand rfingers
  end

#!OML:ASF H:\BabyWalks\Project 1\Capture day 1\Session 1\baby.ASF
:FULLY-SPECIFIED
:DEGREES
246
root -20.7797 17.5085 -1.79962 -32.2924 83.008 -39.0553
lowerback 17.8753 1.67794 4.89868
upperback 3.98471 3.63705 3.94036
thorax -5.68412 1.83904 0.604969
lowerneck -0.297359 0.952993 12.097
upperneck -4.1527 0.986408 -14.4464
head -1.00978 0.556421 -6.40198
rclavicle 5.56597e-015 7.15625e-015
rhumerus -46.2064 7.62601 -79.8957
rradius 45.8757
rwrist -2.91582
rhand -18.2619 -20.1591
rfingers 7.12502
rthumb 8.01755 -49.987
lclavicle 5.56597e-015 7.15625e-015
lhumerus -61.2575 -12.7508 85.1555
lradius 47.3699
lwrist -5.52726
lhand 15.3376 10.9736
lfingers 7.12502
lthumb 40.1693 36.1484
rfemur -0.812443 12.2637 25.174
rtibia 22.4731
rfoot -21.5772 8.3977
rtoes -2.23724
lfemur -31.9118 -0.708674 -8.772
ltibia 53.6992
lfoot -22.6906 -22.4147
ltoes -7.9414
247
root -20.6173 17.5453 -1.79287 -32.7405 83.2081 -39.7628
lowerback 17.8517 1.76384 4.81869
upperback 3.94304 3.71562 3.76023
thorax -5.70679 1.8734 0.440987
lowerneck -0.259668 0.891845 11.6731
upperneck -4.68357 0.876994 -13.9463
head -1.19126 0.507904 -6.17514
rclavicle -1.47101e-014 -1.90833e-014
rhumerus -46.4245 7.81846 -80.0201
rradius 46.5509
rwrist -3.79441
rhand -17.9905 -19.6223
rfingers 7.12502
rthumb 8.27946 -49.4401
lclavicle -1.47101e-014 -1.90833e-014
lhumerus -61.7649 -12.9455 84.9792
lradius 47.7321
lwrist -4.91741
lhand 15.9807 11.6059
lfingers 7.12502
lthumb 40.7739 36.5937
rfemur 0.128384 11.9634 25.0698
rtibia 21.0308
rfoot -20.5703 8.79978
rtoes -2.45816
lfemur -32.6456 -1.08726 -8.92946
ltibia 51.4305
lfoot -22.6799 -21.5574
ltoes -7.93511
248
root -20.4529 17.5811 -1.78653 -32.9835 83.3826 -40.2731
lowerback 17.8152 1.85425 4.71395
upperback 3.90409 3.79269 3.56234
thorax -5.71962 1.90732 0.273062
lowerneck -0.191003 0.825985 11.2355
upperneck -5.27201 0.764884 -13.4109
head -1.3949 0.459196 -5.93656
rclavicle -1.55052e-014 -2.22639e-014
rhumerus -46.6369 8.00922 -80.1537
rradius 47.2001
rwrist -4.6272
rhand -17.553 -19.0009
rfingers 7.12502
rthumb 8.70172 -48.8016
lclavicle -1.55052e-014 -2.22639e-014
lhumerus -62.2424 -13.1273 84.7543
lradius 48.1423
lwrist -4.17001
lhand 16.4499 12.1676
lfingers 7.12502
lthumb 41.2147 37.0154
rfemur 1.06303 11.6804 24.956
rtibia 19.5854
rfoot -19.5071 9.17626
rtoes -2.69041
lfemur -33.3121 -1.48257 -9.06578
ltibia 49.0841
lfoot -22.6278 -20.7295
ltoes -7.97332
249
root -20.2865 17.6155 -1.78062 -33.0169 83.5278 -40.5788
lowerback 17.7779 1.95454 4.60264
upperback 3.85583 3.87894 3.33573
thorax -5.73976 1.94494 0.0763769
lowerneck -0.0519537 0.738203 10.8182
upperneck -5.93906 0.629473 -12.8489
head -1.63574 0.400514 -5.69513
rclavicle 4.96962e-014 1.59028e-014
rhumerus -46.8595 8.15933 -80.3026
rradius 47.8229
rwrist -5.43627
rhand -16.9467 -18.3565
rfingers 7.12502
rthumb 9.28675 -48.132
lclavicle 4.96962e-014 1.59028e-014
lhumerus -62.6987 -13.3326 84.477
lradius 48.5805
lwrist -3.34836
lhand 16.7799 12.6337
lfingers 7.12502
lthumb 41.5243 37.3811
rfemur 1.99824 11.4336 24.8379
rtibia 18.1273
rfoot -18.3789 9.5191
rtoes -2.91601
lfemur -33.9103 -1.90757 -9.16675
ltibia 46.6996
lfoot -22.504 -19.9186
ltoes -7.99798
250
root -20.118 17.6481 -1.77509 -32.8793 83.6363 -40.718
lowerback 17.7297 2.06471 4.48475
upperback 3.8026 3.97444 3.08839
thorax -5.75757 1.98682 -0.140015
lowerneck 0.169367 0.621015 10.4341
upperneck -6.69619 0.461414 -12.2795
head -1.91984 0.327229 -5.45897
rclavicle -1.74931e-014 -1.03368e-014
rhumerus -47.0859 8.27058 -80.4635
rradius 48.4061
rwrist -6.18799
rhand -16.2335 -17.6967
rfingers 7.12502
rthumb 9.97489 -47.4403
lclavicle -1.74931e-014 -1.03368e-014
lhumerus -63.1226 -13.5487 84.1503
lradius 49.0301
lwrist -2.50596
lhand 16.9957 13.004
lfingers 7.12502
lthumb 41.7267 37.6849
rfemur 2.94784 11.2466 24.7308
rtibia 16.636
rfoot -17.1975 9.79941
rtoes -3.15123
lfemur -34.4556 -2.36371 -9.21721
ltibia 44.3316
lfoot -22.3221 -19.1062
ltoes -8.02158
251
root -19.9473 17.678 -1.76982 -32.6567 83.7042 -40.7686
lowerback 17.6684 2.17849 4.36557
upperback 3.7536 4.07259 2.8271
thorax -5.76219 2.03037 -0.36999
lowerneck 0.422719 0.49894 10.0597
upperneck -7.49513 0.294701 -11.6803
head -2.22096 0.253647 -5.21623
rclavicle -6.75868e-015 -2.8625e-014
rhumerus -47.2975 8.36239 -80.6402
rradius 48.9387
rwrist -6.86571
rhand -15.4591 -17.0476
rfingers 7.12502
rthumb 10.722 -46.754
lclavicle -6.75868e-015 -2.8625e-014
lhumerus -63.4964 -13.7553 83.7722
lradius 49.4741
lwrist -1.67601
lhand 17.1175 13.2818
lfingers 7.12502
lthumb 41.841 37.9249
rfemur 3.93259 11.1109 24.6467
rtibia 15.0884
rfoot -15.9641 10.0251
rtoes -3.39175
lfemur -34.9543 -2.85737 -9.20109
ltibia 42.0423
lfoot -22.109 -18.276
ltoes -8.06514
252
root -19.7749 17.7044 -1.76471 -32.3545 83.7296 -40.7317
lowerback 17.6022 2.29736 4.23589
upperback 3.70523 4.17509 2.55827
thorax -5.76295 2.07638 -0.602358
lowerneck 0.707304 0.371188 9.70079
upperneck -8.32066 0.12952 -11.0643
head -2.53455 0.179372 -4.97158
rclavicle 8.34896e-015 1.27222e-014
rhumerus -47.4974 8.44329 -80.8304
rradius 49.4138
rwrist -7.48027
rhand -14.6545 -16.4415
rfingers 7.12502
rthumb 11.498 -46.1062
lclavicle 8.34896e-015 1.27222e-014
lhumerus -63.8244 -13.9504 83.3564
lradius 49.9057
lwrist -0.866641
lhand 17.1655 13.503
lfingers 7.12502
lthumb 41.8859 38.1311
rfemur 4.96948 11.0309 24.5886
rtibia 13.4563
rfoot -14.6807 10.1953
rtoes -3.68784
lfemur -35.4189 -3.38676 -9.11472
ltibia 39.8976
lfoot -21.8881 -17.4163
ltoes -8.11409
253
root -19.6008 17.7261 -1.75977 -32.1447 83.7102 -40.7774
lowerback 17.5229 2.41218 4.10965
upperback 3.66581 4.27294 2.29111
thorax -5.74656 2.12103 -0.832518
lowerneck 0.984966 0.247719 9.3474
upperneck -9.1425 -0.0213619 -10.431
head -2.84417 0.109474 -4.72268
rclavicle 3.77691e-014 2.94201e-014
rhumerus -47.6694 8.53146 -81.035
rradius 49.8299
rwrist -8.02287
rhand -13.8551 -15.9011
rfingers 7.12502
rthumb 12.2688 -45.5212
lclavicle 3.77691e-014 2.94201e-014
lhumerus -64.0897 -14.114 82.9042
lradius 50.3126
lwrist -0.0856224
lhand 17.151 13.6694
lfingers 7.12502
lthumb 41.8724 38.3021
rfemur 6.07463 10.9961 24.5756
rtibia 11.7192
rfoot -13.3484 10.3049
rtoes -4.12254
lfemur -35.8655 -3.93836 -8.94879
ltibia 37.9598
lfoot -21.6732 -16.534
ltoes -8.14077
254
root -19.4252 17.7427 -1.75476 -31.9583 83.6558 -40.8306
lowerback 17.4305 2.5217 3.96239
upperback 3.63943 4.36074 2.03172
thorax -5.71117 2.16228 -1.03895
lowerneck 1.24033 0.134197 8.9893
upperneck -9.94036 -0.150643 -9.78278
head -3.14068 0.0473947 -4.46841
rclavicle -4.31363e-014 2.38542e-015
rhumerus -47.7954 8.6409 -81.2461
rradius 50.1695
rwrist -8.49746
rhand -13.0816 -15.4516
rfingers 7.12502
rthumb 13.0146 -45.0256
lclavicle -4.31363e-014 2.38542e-015
lhumerus -64.2879 -14.229 82.4249
lradius 50.6905
lwrist 0.667354
lhand 17.0946 13.8034
lfingers 7.12502
lthumb 41.8195 38.4536
rfemur 7.25556 10.9243 24.5833
rtibia 9.86131
rfoot -11.9514 10.4432
rtoes -4.64672
lfemur -36.2964 -4.48861 -8.73258
ltibia 36.2786
lfoot -21.4777 -15.633
ltoes -8.13778
255
root -19.2481 17.7537 -1.74963 -31.8488 83.5673 -40.9347
lowerback 17.3344 2.6243 3.80056
upperback 3.62629 4.4385 1.7813
thorax -5.66157 2.19996 -1.22449
lowerneck 1.45793 0.0289472 8.62486
upperneck -10.6901 -0.260681 -9.11703
head -3.41476 -0.00860031 -4.20717
rclavicle -2.74323e-014 -2.78299e-015
rhumerus -47.8816 8.77293 -81.4644
rradius 50.4502
rwrist -8.9315
rhand -12.3479 -15.1362
rfingers 7.12502
rthumb 13.7217 -44.6638
lclavicle -2.74323e-014 -2.78299e-015
lhumerus -64.4228 -14.3035 81.9278
lradius 51.0369
lwrist 1.39399
lhand 16.9999 13.9168
lfingers 7.12502
lthumb 41.7307 38.5965
rfemur 8.52827 10.8746 24.6214
rtibia 7.87329
rfoot -10.4763 10.564
rtoes -5.21121
lfemur -36.7033 -5.0007 -8.48898
ltibia 34.8864
lfoot -21.2973 -14.7435
ltoes -8.07405
256
root -19.0696 17.7582 -1.74432 -31.7657 83.4525 -41.0337
lowerback 17.2362 2.72173 3.61717
upperback 3.62766 4.50732 1.53767
thorax -5.59774 2.2347 -1.38781
lowerneck 1.63414 -0.0731027 8.25848
upperneck -11.3823 -0.358803 -8.43781
head -3.66358 -0.0621297 -3.94062
rclavicle 8.54774e-015 -1.94809e-014
rhumerus -47.9268 8.9199 -81.6919
rradius 50.6558
rwrist -9.29544
rhand -11.6919 -14.9336
rfingers 7.12502
rthumb 14.3539 -44.4174
lclavicle 8.54774e-015 -1.94809e-014
lhumerus -64.4936 -14.3473 81.4211
lradius 51.3473
lwrist 2.08769
lhand 16.8672 14.0081
lfingers 7.12502
lthumb 41.6062 38.7288
rfemur 9.89752 10.8449 24.678
rtibia 5.75826
rfoot -8.91065 10.6689
rtoes -5.79802
lfemur -37.0751 -5.43426 -8.25925
ltibia 33.7939
lfoot -21.1184 -13.9052
ltoes -7.9176
257
root -18.8901 17.7559 -1.7386 -31.7012 83.3164 -41.1126
lowerback 17.149 2.82029 3.42451
upperback 3.63719 4.57745 1.28805
thorax -5.53107 2.27071 -1.55243
lowerneck 1.77307 -0.180938 7.90914
upperneck -12.0041 -0.455418 -7.73676
head -3.88489 -0.119515 -3.66877
rclavicle 2.24627e-014 -7.15625e-015
rhumerus -47.9523 9.04328 -81.9376
rradius 50.7919
rwrist -9.5766
rhand -11.137 -14.8306
rfingers 7.12502
rthumb 14.8885 -44.2755
lclavicle 2.24627e-014 -7.15625e-015
lhumerus -64.5054 -14.4104 80.9105
lradius 51.6194
lwrist 2.74167
lhand 16.697 14.0857
lfingers 7.12502
lthumb 41.4465 38.8585
rfemur 11.3761 10.8311 24.7481
rtibia 3.50068
rfoot -7.22973 10.7553
rtoes -6.36293
lfemur -37.3932 -5.74629 -8.08109
ltibia 32.9915
lfoot -20.9291 -13.1712
ltoes -7.65117
258
root -18.7096 17.7462 -1.7326 -31.6294 83.1651 -41.1397
lowerback 17.0717 2.91076 3.20258
upperback 3.66579 4.63437 1.04529
thorax -5.45281 2.30183 -1.69021
lowerneck 1.84791 -0.282016 7.55882
upperneck -12.5477 -0.537719 -7.02833
head -4.07032 -0.172981 -3.39345
rclavicle 4.17448e-015 2.68359e-014
rhumerus -47.9403 9.18942 -82.1952
rradius 50.8584
rwrist -9.75304
rhand -10.698 -14.7994
rfingers 7.12502
rthumb 15.3114 -44.2126
lclavicle 4.17448e-015 2.68359e-014
lhumerus -64.4502 -14.4442 80.4046
lradius 51.8462
lwrist 3.33809
lhand 16.4795 14.1333
lfingers 7.12502
lthumb 41.2424 38.9721
rfemur 13.0905 10.83 24.8226
rtibia 0.85017
rfoot -5.28966 10.7955
rtoes -6.89713
lfemur -37.6352 -5.91727 -7.98469
ltibia 32.4544
lfoot -20.7238 -12.5806
ltoes -7.31833
259
root -18.5279 17.7291 -1.72623 -31.5486 82.9969 -41.1074
lowerback 17.0185 2.99846 2.96306
upperback 3.70627 4.68722 0.801867
thorax -5.37639 2.33171 -1.81875
lowerneck 1.86505 -0.3856 7.23406
upperneck -13.006 -0.618815 -6.32582
head -4.21976 -0.229119 -3.12283
rclavicle 4.74101e-014 3.95581e-014
rhumerus -47.9068 9.33289 -82.465
rradius 50.8788
rwrist -9.87214
rhand -10.3356 -14.8761
rfingers 7.12502
rthumb 15.6604 -44.2623
lclavicle 4.74101e-014 3.95581e-014
lhumerus -64.3335 -14.4805 79.909
lradius 52.0172
lwrist 3.86662
lhand 16.2101 14.1406
lfingers 7.12502
lthumb 40.9895 39.0603
rfemur 14.0005 10.844 24.9075
rtibia 1.90833e-014
rfoot -4.21362 10.9683
rtoes -7.32807
lfemur -37.7759 -5.95054 -7.97552
ltibia 32.1492
lfoot -20.4836 -12.1472
ltoes -7.02682
